<svg width="160" height="160" viewBox="0 0 160 160" fill="none" xmlns="http://www.w3.org/2000/svg">
<path fill-rule="evenodd" clip-rule="evenodd" d="M4.68629 4.68629C10.9347 -1.5621 21.0653 -1.5621 27.3137 4.68629L155.314 132.686C161.562 138.935 161.562 149.065 155.314 155.314C149.065 161.562 138.935 161.562 132.686 155.314L4.68629 27.3137C-1.5621 21.0653 -1.5621 10.9347 4.68629 4.68629ZM155.314 4.68629C149.065 -1.5621 138.935 -1.5621 132.686 4.68629L107.686 29.6863C101.438 35.9347 101.438 46.0653 107.686 52.3137C113.935 58.5621 124.065 58.5621 130.314 52.3137L155.314 27.3137C161.562 21.0653 161.562 10.9347 155.314 4.68629ZM27.3137 82.6863C21.0653 76.4379 10.9347 76.4379 4.68629 82.6863C-1.5621 88.9347 -1.5621 99.0653 4.68629 105.314L54.6863 155.314C60.9347 161.562 71.0653 161.562 77.3137 155.314C83.5621 149.065 83.5621 138.935 77.3137 132.686L27.3137 82.6863Z" fill="black"/>
</svg>
