<svg width="32" height="32" viewBox="0 0 32 32" fill="none" xmlns="http://www.w3.org/2000/svg">
<path d="M28.967 12H9.442C9.02207 11.9999 8.61276 12.132 8.2721 12.3775C7.93143 12.6231 7.6767 12.9696 7.544 13.368L4 24V10H28C28 9.46957 27.7893 8.96086 27.4142 8.58579C27.0391 8.21071 26.5304 8 26 8H15.124C14.6562 7.99979 14.2033 7.8356 13.844 7.536L12.556 6.464C12.1967 6.1644 11.7438 6.00021 11.276 6H4C3.46957 6 2.96086 6.21071 2.58579 6.58579C2.21071 6.96086 2 7.46957 2 8V24C2 24.5304 2.21071 25.0391 2.58579 25.4142C2.96086 25.7893 3.46957 26 4 26H26L30.805 14.788C30.9354 14.4838 30.9883 14.152 30.9589 13.8224C30.9295 13.4927 30.8187 13.1755 30.6366 12.8992C30.4544 12.6229 30.2065 12.3961 29.9151 12.2391C29.6237 12.0822 29.298 12 28.967 12Z" fill="#F50057"/>
<path d="M27.8812 17.5013L30.6255 14.7578L28.2412 12.3734L25.4968 15.118L27.8812 17.5013ZM29.0396 11.3275L31.6713 13.9594C32.1096 14.3741 32.1096 15.1061 31.6713 15.5443L18.5466 28.6713C18.1082 29.1096 17.3774 29.1096 16.9604 28.6713L14.3287 26.0405C13.8904 25.6235 13.8904 24.8926 14.3287 24.4531L27.4534 11.3287C27.8918 10.8904 28.6238 10.8904 29.0407 11.3287L29.0396 11.3275Z" fill="#FF80AB"/>
</svg>
