<svg width="32" height="32" viewBox="0 0 32 32" fill="none" xmlns="http://www.w3.org/2000/svg">
<path d="M13.844 7.536L12.556 6.464C12.1967 6.1644 11.7438 6.00021 11.276 6H4C3.46957 6 2.96086 6.21071 2.58579 6.58579C2.21071 6.96086 2 7.46957 2 8V24C2 24.5304 2.21071 25.0391 2.58579 25.4142C2.96086 25.7893 3.46957 26 4 26H28C28.5304 26 29.0391 25.7893 29.4142 25.4142C29.7893 25.0391 30 24.5304 30 24V10C30 9.46957 29.7893 8.96086 29.4142 8.58579C29.0391 8.21071 28.5304 8 28 8H15.124C14.6562 7.99979 14.2033 7.8356 13.844 7.536Z" fill="#F50057"/>
<path d="M26.8812 17.5013L29.6255 14.7578L27.2412 12.3734L24.4968 15.118L26.8812 17.5013ZM28.0396 11.3275L30.6713 13.9594C31.1096 14.3741 31.1096 15.1061 30.6713 15.5443L17.5466 28.6713C17.1082 29.1096 16.3774 29.1096 15.9604 28.6713L13.3287 26.0405C12.8904 25.6235 12.8904 24.8926 13.3287 24.4531L26.4534 11.3287C26.8918 10.8904 27.6238 10.8904 28.0407 11.3287L28.0396 11.3275Z" fill="#FF80AB"/>
</svg>
