<svg width="32" height="32" viewBox="0 0 32 32" fill="none" xmlns="http://www.w3.org/2000/svg">
<path d="M28.967 12H9.442C9.02207 11.9999 8.61276 12.132 8.2721 12.3775C7.93143 12.6231 7.6767 12.9696 7.544 13.368L4 24V10H28C28 9.46957 27.7893 8.96086 27.4142 8.58579C27.0391 8.21071 26.5304 8 26 8H15.124C14.6562 7.99979 14.2033 7.8356 13.844 7.536L12.556 6.464C12.1967 6.1644 11.7438 6.00021 11.276 6H4C3.46957 6 2.96086 6.21071 2.58579 6.58579C2.21071 6.96086 2 7.46957 2 8V24C2 24.5304 2.21071 25.0391 2.58579 25.4142C2.96086 25.7893 3.46957 26 4 26H26L30.805 14.788C30.9354 14.4838 30.9883 14.152 30.9589 13.8224C30.9295 13.4927 30.8187 13.1755 30.6366 12.8992C30.4544 12.6229 30.2065 12.3961 29.9151 12.2391C29.6237 12.0822 29.298 12 28.967 12Z" fill="#EF5350"/>
<path d="M14.5272 10.5272C15.2302 9.82426 16.3698 9.82426 17.0728 10.5272L31.4728 24.9272C32.1757 25.6302 32.1757 26.7698 31.4728 27.4728C30.7698 28.1757 29.6302 28.1757 28.9272 27.4728L14.5272 13.0728C13.8243 12.3698 13.8243 11.2302 14.5272 10.5272Z" fill="#FFCDD2"/>
<path d="M31.4728 10.5272C30.7698 9.82426 29.6302 9.82426 28.9272 10.5272L26.1147 13.3397C25.4118 14.0427 25.4118 15.1823 26.1147 15.8853C26.8177 16.5882 27.9573 16.5882 28.6603 15.8853L31.4728 13.0728C32.1757 12.3698 32.1757 11.2302 31.4728 10.5272Z" fill="#FFCDD2"/>
<path d="M17.0728 19.3022C16.3698 18.5993 15.2302 18.5993 14.5272 19.3022C13.8243 20.0052 13.8243 21.1448 14.5272 21.8478L20.1522 27.4728C20.8552 28.1757 21.9948 28.1757 22.6978 27.4728C23.4007 26.7698 23.4007 25.6302 22.6978 24.9272L17.0728 19.3022Z" fill="#FFCDD2"/>
</svg>
